<svg xmlns="http://www.w3.org/2000/svg" width="600" height="400" viewBox="0 0 600 400"><rect width="600" height="400" fill="#FFF8E1" rx="15" /><rect width="600" height="80" fill="#FF6F00" rx="15" /><rect width="600" height="60" fill="#FF6F00" y="0" rx="15" /><rect width="600" height="30" fill="#FF6F00" y="30" /><text x="300" y="45" font-family="Arial, 'Microsoft JhengHei', sans-serif" font-size="28" font-weight="bold" fill="white" text-anchor="middle" dominant-baseline="middle">好食光便當專賣</text><rect x="500" y="10" width="80" height="24" rx="12" fill="rgba(255,255,255,0.3)" /><text x="540" y="27" font-family="Arial, sans-serif" font-size="12" font-weight="bold" fill="white" text-anchor="middle">美味便當</text><rect x="30" y="75" width="540" height="45" fill="rgba(0,0,0,0.03)" rx="8" /><text x="50" y="100" font-family="Arial, 'Microsoft JhengHei', sans-serif" font-size="20" fill="#3E2723" font-weight="bold">招牌排骨飯</text><text x="550" y="100" font-family="Arial, sans-serif" font-size="22" fill="#FF6F00" font-weight="bold" text-anchor="end">$100</text><text x="50" y="145" font-family="Arial, 'Microsoft JhengHei', sans-serif" font-size="20" fill="#3E2723" font-weight="bold">酥炸雞腿飯</text><text x="550" y="145" font-family="Arial, sans-serif" font-size="22" fill="#FF6F00" font-weight="bold" text-anchor="end">$110</text><rect x="30" y="165" width="540" height="45" fill="rgba(0,0,0,0.03)" rx="8" /><text x="50" y="190" font-family="Arial, 'Microsoft JhengHei', sans-serif" font-size="20" fill="#3E2723" font-weight="bold">控肉飯</text><text x="550" y="190" font-family="Arial, sans-serif" font-size="22" fill="#FF6F00" font-weight="bold" text-anchor="end">$105</text><text x="50" y="235" font-family="Arial, 'Microsoft JhengHei', sans-serif" font-size="20" fill="#3E2723" font-weight="bold">蔥爆牛肉飯</text><text x="550" y="235" font-family="Arial, sans-serif" font-size="22" fill="#FF6F00" font-weight="bold" text-anchor="end">$120</text><rect x="30" y="255" width="540" height="45" fill="rgba(0,0,0,0.03)" rx="8" /><text x="50" y="280" font-family="Arial, 'Microsoft JhengHei', sans-serif" font-size="20" fill="#3E2723" font-weight="bold">滷雞腿飯</text><text x="550" y="280" font-family="Arial, sans-serif" font-size="22" fill="#FF6F00" font-weight="bold" text-anchor="end">$100</text><text x="300" y="380" font-family="Arial, sans-serif" font-size="12" fill="#3E2723" opacity="0.5" text-anchor="middle">Powered by YJ-Order System</text></svg>