<svg xmlns="http://www.w3.org/2000/svg" width="600" height="400" viewBox="0 0 600 400"><rect width="600" height="400" fill="#EFEBE9" rx="15" /><rect width="600" height="80" fill="#5D4037" rx="15" /><rect width="600" height="60" fill="#5D4037" y="0" rx="15" /><rect width="600" height="30" fill="#5D4037" y="30" /><text x="300" y="45" font-family="Arial, 'Microsoft JhengHei', sans-serif" font-size="28" font-weight="bold" fill="white" text-anchor="middle" dominant-baseline="middle">路易莎咖啡</text><rect x="500" y="10" width="80" height="24" rx="12" fill="rgba(255,255,255,0.3)" /><text x="540" y="27" font-family="Arial, sans-serif" font-size="12" font-weight="bold" fill="white" text-anchor="middle">清涼飲料</text><rect x="30" y="75" width="540" height="45" fill="rgba(0,0,0,0.03)" rx="8" /><text x="50" y="100" font-family="Arial, 'Microsoft JhengHei', sans-serif" font-size="20" fill="#3E2723" font-weight="bold">莊園美式</text><text x="550" y="100" font-family="Arial, sans-serif" font-size="22" fill="#5D4037" font-weight="bold" text-anchor="end">$55</text><text x="50" y="145" font-family="Arial, 'Microsoft JhengHei', sans-serif" font-size="20" fill="#3E2723" font-weight="bold">莊園拿鐵</text><text x="550" y="145" font-family="Arial, sans-serif" font-size="22" fill="#5D4037" font-weight="bold" text-anchor="end">$75</text><rect x="30" y="165" width="540" height="45" fill="rgba(0,0,0,0.03)" rx="8" /><text x="50" y="190" font-family="Arial, 'Microsoft JhengHei', sans-serif" font-size="20" fill="#3E2723" font-weight="bold">風味小農鮮奶</text><text x="550" y="190" font-family="Arial, sans-serif" font-size="22" fill="#5D4037" font-weight="bold" text-anchor="end">$65</text><text x="50" y="235" font-family="Arial, 'Microsoft JhengHei', sans-serif" font-size="20" fill="#3E2723" font-weight="bold">錫蘭紅茶</text><text x="550" y="235" font-family="Arial, sans-serif" font-size="22" fill="#5D4037" font-weight="bold" text-anchor="end">$40</text><rect x="30" y="255" width="540" height="45" fill="rgba(0,0,0,0.03)" rx="8" /><text x="50" y="280" font-family="Arial, 'Microsoft JhengHei', sans-serif" font-size="20" fill="#3E2723" font-weight="bold">黑糖雪點奶茶</text><text x="550" y="280" font-family="Arial, sans-serif" font-size="22" fill="#5D4037" font-weight="bold" text-anchor="end">$60</text><text x="300" y="380" font-family="Arial, sans-serif" font-size="12" fill="#3E2723" opacity="0.5" text-anchor="middle">Powered by YJ-Order System</text></svg>