<svg xmlns="http://www.w3.org/2000/svg" width="600" height="400" viewBox="0 0 600 400"><rect width="600" height="400" fill="#E8F5E9" rx="15" /><rect width="600" height="80" fill="#43A047" rx="15" /><rect width="600" height="60" fill="#43A047" y="0" rx="15" /><rect width="600" height="30" fill="#43A047" y="30" /><text x="300" y="45" font-family="Arial, 'Microsoft JhengHei', sans-serif" font-size="28" font-weight="bold" fill="white" text-anchor="middle" dominant-baseline="middle">大苑子</text><rect x="500" y="10" width="80" height="24" rx="12" fill="rgba(255,255,255,0.3)" /><text x="540" y="27" font-family="Arial, sans-serif" font-size="12" font-weight="bold" fill="white" text-anchor="middle">清涼飲料</text><rect x="30" y="75" width="540" height="45" fill="rgba(0,0,0,0.03)" rx="8" /><text x="50" y="100" font-family="Arial, 'Microsoft JhengHei', sans-serif" font-size="20" fill="#1B5E20" font-weight="bold">翡翠檸檬</text><text x="550" y="100" font-family="Arial, sans-serif" font-size="22" fill="#43A047" font-weight="bold" text-anchor="end">$55</text><text x="50" y="145" font-family="Arial, 'Microsoft JhengHei', sans-serif" font-size="20" fill="#1B5E20" font-weight="bold">新鮮水果茶</text><text x="550" y="145" font-family="Arial, sans-serif" font-size="22" fill="#43A047" font-weight="bold" text-anchor="end">$70</text><rect x="30" y="165" width="540" height="45" fill="rgba(0,0,0,0.03)" rx="8" /><text x="50" y="190" font-family="Arial, 'Microsoft JhengHei', sans-serif" font-size="20" fill="#1B5E20" font-weight="bold">芭樂檸檬</text><text x="550" y="190" font-family="Arial, sans-serif" font-size="22" fill="#43A047" font-weight="bold" text-anchor="end">$65</text><text x="50" y="235" font-family="Arial, 'Microsoft JhengHei', sans-serif" font-size="20" fill="#1B5E20" font-weight="bold">奇異果冰鑽</text><text x="550" y="235" font-family="Arial, sans-serif" font-size="22" fill="#43A047" font-weight="bold" text-anchor="end">$80</text><rect x="30" y="255" width="540" height="45" fill="rgba(0,0,0,0.03)" rx="8" /><text x="50" y="280" font-family="Arial, 'Microsoft JhengHei', sans-serif" font-size="20" fill="#1B5E20" font-weight="bold">愛文芒果冰沙</text><text x="550" y="280" font-family="Arial, sans-serif" font-size="22" fill="#43A047" font-weight="bold" text-anchor="end">$90</text><text x="300" y="380" font-family="Arial, sans-serif" font-size="12" fill="#1B5E20" opacity="0.5" text-anchor="middle">Powered by YJ-Order System</text></svg>